<svg width="17" height="17" viewBox="0 0 17 17" fill="none" xmlns="http://www.w3.org/2000/svg">
<g clip-path="url(#clip0_2743_7202)">
<path d="M7.26562 14.6627C7.26562 14.6627 6.26562 14.6627 6.26562 13.6627C6.26562 12.6627 7.26562 9.66272 11.2656 9.66272C15.2656 9.66272 16.2656 12.6627 16.2656 13.6627C16.2656 14.6627 15.2656 14.6627 15.2656 14.6627H7.26562ZM11.2656 8.66272C12.0613 8.66272 12.8243 8.34665 13.3869 7.78404C13.9496 7.22143 14.2656 6.45837 14.2656 5.66272C14.2656 4.86707 13.9496 4.10401 13.3869 3.5414C12.8243 2.97879 12.0613 2.66272 11.2656 2.66272C10.47 2.66272 9.70691 2.97879 9.1443 3.5414C8.5817 4.10401 8.26562 4.86707 8.26562 5.66272C8.26562 6.45837 8.5817 7.22143 9.1443 7.78404C9.70691 8.34665 10.47 8.66272 11.2656 8.66272ZM5.48163 14.6627C5.33338 14.3505 5.25945 14.0083 5.26562 13.6627C5.26562 12.3077 5.94562 10.9127 7.20162 9.94272C6.57472 9.74956 5.92157 9.65509 5.26562 9.66272C1.26562 9.66272 0.265625 12.6627 0.265625 13.6627C0.265625 14.6627 1.26562 14.6627 1.26562 14.6627H5.48163ZM4.76562 8.66272C5.42867 8.66272 6.06455 8.39933 6.53339 7.93049C7.00223 7.46165 7.26562 6.82576 7.26562 6.16272C7.26562 5.49968 7.00223 4.86379 6.53339 4.39495C6.06455 3.92611 5.42867 3.66272 4.76562 3.66272C4.10258 3.66272 3.4667 3.92611 2.99786 4.39495C2.52902 4.86379 2.26562 5.49968 2.26562 6.16272C2.26562 6.82576 2.52902 7.46165 2.99786 7.93049C3.4667 8.39933 4.10258 8.66272 4.76562 8.66272Z" fill="#264466"/>
</g>
<defs>
<clipPath id="clip0_2743_7202">
<rect width="16" height="16" fill="white" transform="translate(0.265625 0.66272)"/>
</clipPath>
</defs>
</svg>
