<svg width="23" height="26" viewBox="0 0 23 26" fill="none" xmlns="http://www.w3.org/2000/svg">
<path d="M9.34657 23.3889H14.2355C14.2355 24.7334 13.1355 25.8334 11.791 25.8334C10.4466 25.8334 9.34657 24.7334 9.34657 23.3889ZM22.791 20.9445V22.1667H0.791016V20.9445L3.23546 18.5V11.1667C3.23546 7.3778 5.6799 4.0778 9.34657 2.9778V2.61113C9.34657 1.26669 10.4466 0.166687 11.791 0.166687C13.1355 0.166687 14.2355 1.26669 14.2355 2.61113V2.9778C17.9021 4.0778 20.3466 7.3778 20.3466 11.1667V18.5L22.791 20.9445ZM17.9021 11.1667C17.9021 7.74446 15.2132 5.05558 11.791 5.05558C8.36879 5.05558 5.6799 7.74446 5.6799 11.1667V19.7222H17.9021V11.1667Z" fill="#264466"/>
<path d="M4.95117 10.8556C4.95117 7.23633 7.88514 4.30237 11.5044 4.30237C15.1236 4.30237 18.0576 7.23633 18.0576 10.8556V20.5293H4.95117V10.8556Z" fill="#264466"/>
</svg>
