<svg width="598" height="181" viewBox="0 0 598 181" fill="none" xmlns="http://www.w3.org/2000/svg">
<path d="M46.4 146C37.0667 146 28.9333 144.133 22 140.4C15.0667 136.667 9.66667 131.8 5.8 125.8C1.93333 119.667 7.45058e-08 113.133 7.45058e-08 106.2C7.45058e-08 99.1333 1.93333 93.8667 5.8 90.4C9.66667 86.9333 13.8667 85.2 18.4 85.2C23.0667 85.2 26.5333 86.1333 28.8 88C31.0667 89.7333 32.7333 91.8 33.8 94.2C35 96.4667 36.2667 98.5333 37.6 100.4C39.0667 102.133 41.2667 103 44.2 103C49.5333 103 52.6 99.8 53.4 93.4C54.3333 87 54.7333 77.7333 54.6 65.6C54.6 61.0667 54.6 57 54.6 53.4C47.6667 53.1333 41.3333 52.2667 35.6 50.8C29.8667 49.3333 25.3333 47 22 43.8C18.6667 40.4667 17 35.8 17 29.8C17 24.2 18.4667 19.8 21.4 16.6C24.4667 13.2667 28.6 10.8667 33.8 9.39999C39 7.93333 44.8667 7 51.4 6.59999C57.9333 6.19999 64.6667 5.99999 71.6 5.99999C78.6667 5.99999 85.4 6.19999 91.8 6.59999C98.3333 7 104.133 7.93333 109.2 9.39999C114.4 10.8667 118.467 13.2667 121.4 16.6C124.467 19.8 126 24.2 126 29.8C126 37 123.6 42.2667 118.8 45.6C114 48.9333 107.867 51.2 100.4 52.4C100.667 55.8667 100.8 59.7333 100.8 64C100.933 68.2667 101 72.9333 101 78C101 100.4 96.5333 117.333 87.6 128.8C78.8 140.267 65.0667 146 46.4 146ZM162.416 146C153.082 146 144.949 144.133 138.016 140.4C131.082 136.667 125.682 131.8 121.816 125.8C117.949 119.667 116.016 113.133 116.016 106.2C116.016 99.1333 117.949 93.8667 121.816 90.4C125.682 86.9333 129.882 85.2 134.416 85.2C139.082 85.2 142.549 86.1333 144.816 88C147.082 89.7333 148.749 91.8 149.816 94.2C151.016 96.4667 152.282 98.5333 153.616 100.4C155.082 102.133 157.282 103 160.216 103C165.549 103 168.616 99.8 169.416 93.4C170.349 87 170.749 77.7333 170.616 65.6C170.616 61.0667 170.616 57 170.616 53.4C163.682 53.1333 157.349 52.2667 151.616 50.8C145.882 49.3333 141.349 47 138.016 43.8C134.682 40.4667 133.016 35.8 133.016 29.8C133.016 24.2 134.482 19.8 137.416 16.6C140.482 13.2667 144.616 10.8667 149.816 9.39999C155.016 7.93333 160.882 7 167.416 6.59999C173.949 6.19999 180.682 5.99999 187.616 5.99999C194.682 5.99999 201.416 6.19999 207.816 6.59999C214.349 7 220.149 7.93333 225.216 9.39999C230.416 10.8667 234.482 13.2667 237.416 16.6C240.482 19.8 242.016 24.2 242.016 29.8C242.016 37 239.616 42.2667 234.816 45.6C230.016 48.9333 223.882 51.2 216.416 52.4C216.682 55.8667 216.816 59.7333 216.816 64C216.949 68.2667 217.016 72.9333 217.016 78C217.016 100.4 212.549 117.333 203.616 128.8C194.816 140.267 181.082 146 162.416 146ZM277.93 146.2C268.063 146.333 259.396 144.333 251.93 140.2C244.596 135.933 238.796 130.2 234.53 123C230.396 115.667 228.196 107.6 227.93 98.8C227.796 89.7333 229.863 81.7333 234.13 74.8C238.396 67.7333 244.33 62.1333 251.93 58C259.53 53.8667 268.196 51.8 277.93 51.8C287.53 51.6667 295.996 53.6667 303.33 57.8C310.796 61.9333 316.73 67.5333 321.13 74.6C325.53 81.6667 327.863 89.7333 328.13 98.8C328.263 107.467 326.196 115.4 321.93 122.6C317.663 129.667 311.73 135.333 304.13 139.6C296.53 143.733 287.796 145.933 277.93 146.2ZM278.53 117C282.13 117 285.263 115.6 287.93 112.8C290.596 110 291.93 106.733 291.93 103C291.93 99.2667 290.596 96.0667 287.93 93.4C285.263 90.6 282.13 89.2 278.53 89.2C274.93 89.2 271.796 90.6 269.13 93.4C266.463 96.0667 265.13 99.2667 265.13 103C265.13 106.733 266.463 110 269.13 112.8C271.796 115.6 274.93 117 278.53 117ZM353.478 49C346.945 49 341.411 46.6667 336.878 42C332.345 37.2 330.078 31.4 330.078 24.6C330.078 20.0667 331.078 16 333.078 12.4C335.211 8.79999 338.011 5.93332 341.478 3.79999C345.078 1.53333 349.078 0.399991 353.478 0.399991C357.745 0.399991 361.611 1.53333 365.078 3.79999C368.678 5.93332 371.545 8.79999 373.678 12.4C375.811 16 376.878 20.0667 376.878 24.6C376.878 29.1333 375.811 33.2667 373.678 37C371.545 40.6 368.678 43.5333 365.078 45.8C361.611 47.9333 357.745 49 353.478 49ZM353.478 146C348.145 146 344.145 144.467 341.478 141.4C338.945 138.333 337.211 133.667 336.278 127.4C335.478 121 335.011 112.8 334.878 102.8C334.878 92.8 335.278 84.6 336.078 78.2C337.011 71.8 338.811 67.1333 341.478 64.2C344.145 61.1333 348.145 59.6 353.478 59.6C358.811 59.6 362.745 61.1333 365.278 64.2C367.945 67.1333 369.745 71.8 370.678 78.2C371.611 84.6 372.078 92.8 372.078 102.8C372.211 112.8 371.811 121 370.878 127.4C369.945 133.667 368.145 138.333 365.478 141.4C362.811 144.467 358.811 146 353.478 146ZM463.961 146C458.628 146 454.828 144.533 452.561 141.6C450.428 138.533 449.161 134.733 448.761 130.2C448.361 125.533 448.161 120.867 448.161 116.2C448.161 109.133 447.161 103.467 445.161 99.2C443.161 94.8 439.628 92.6 434.561 92.6C430.028 92.6 426.694 94.8 424.561 99.2C422.428 103.467 421.361 109.133 421.361 116.2C421.361 120.867 421.161 125.467 420.761 130C420.494 134.533 419.294 138.333 417.161 141.4C415.028 144.333 411.161 145.8 405.561 145.8C401.428 145.8 397.961 144.267 395.161 141.2C392.494 138.133 390.428 134.133 388.961 129.2C387.494 124.267 386.428 118.933 385.761 113.2C385.228 107.467 384.961 101.933 384.961 96.6C384.961 91.2667 385.228 85.8 385.761 80.2C386.294 74.6 387.228 69.4 388.561 64.6C390.028 59.8 392.094 55.9333 394.761 53C397.428 50.0667 400.894 48.6 405.161 48.6C412.761 48.6 417.494 52.0667 419.361 59C420.961 57.2667 423.494 55.6667 426.961 54.2C430.561 52.6 434.628 51.8 439.161 51.8C449.428 51.8 457.828 54.4 464.361 59.6C470.894 64.8 475.628 72 478.561 81.2C481.628 90.2667 483.094 100.8 482.961 112.8C482.961 118.933 482.361 124.533 481.161 129.6C480.094 134.533 478.161 138.533 475.361 141.6C472.694 144.533 468.894 146 463.961 146ZM532.663 180.2C525.196 180.2 518.929 178.733 513.863 175.8C508.796 173 506.263 169.133 506.263 164.2C506.263 159.133 508.463 155.2 512.863 152.4C517.263 149.6 522.596 148.733 528.863 149.8C536.196 150.867 542.729 150.4 548.463 148.4C554.329 146.533 557.796 143.667 558.863 139.8C556.729 141 553.796 142 550.063 142.8C546.329 143.6 542.129 144 537.463 144C528.396 144 520.729 142.667 514.463 140C508.329 137.2 503.396 133.667 499.663 129.4C495.929 125 493.196 120.4 491.463 115.6C489.863 110.667 489.063 106.133 489.063 102C489.063 91.0667 491.396 81.8667 496.063 74.4C500.863 66.9333 506.929 61.2667 514.263 57.4C521.596 53.5333 529.129 51.6 536.862 51.6C539.396 51.6 542.396 51.8 545.863 52.2C549.463 52.4667 552.529 52.9333 555.063 53.6C556.129 50.2667 557.863 47.5333 560.263 45.4C562.796 43.2667 566.796 42.2 572.263 42.2C577.063 42.2 581.063 43.8667 584.263 47.2C587.463 50.4 589.996 54.8 591.863 60.4C593.729 65.8667 595.063 72 595.863 78.8C596.663 85.4667 596.996 92.4 596.863 99.6C596.863 106.667 596.529 113.333 595.863 119.6C594.529 132 591.129 142.733 585.663 151.8C580.196 160.867 572.929 167.867 563.863 172.8C554.929 177.733 544.529 180.2 532.663 180.2ZM540.063 114C544.196 114 547.796 112.467 550.863 109.4C553.929 106.333 555.463 102.8 555.463 98.8C555.463 94.6667 553.929 91.0667 550.863 88C547.796 84.9333 544.196 83.4 540.063 83.4C535.929 83.4 532.329 84.9333 529.263 88C526.329 91.0667 524.863 94.6667 524.863 98.8C524.863 102.8 526.329 106.333 529.263 109.4C532.329 112.467 535.929 114 540.063 114Z" fill="#38B57D"/>
</svg>
