<svg width="120" height="37" viewBox="0 0 120 37" fill="none" xmlns="http://www.w3.org/2000/svg">
<path d="M9.28 30.096C7.41333 30.096 5.78667 29.7227 4.4 28.976C3.01333 28.2294 1.93333 27.256 1.16 26.056C0.386667 24.8294 1.49012e-08 23.5227 1.49012e-08 22.136C1.49012e-08 20.7227 0.386667 19.6694 1.16 18.976C1.93333 18.2827 2.77333 17.936 3.68 17.936C4.61333 17.936 5.30667 18.1227 5.76 18.496C6.21333 18.8427 6.54667 19.256 6.76 19.736C7 20.1894 7.25333 20.6027 7.52 20.976C7.81333 21.3227 8.25333 21.496 8.84 21.496C9.90667 21.496 10.52 20.856 10.68 19.576C10.8667 18.296 10.9467 16.4427 10.92 14.016C10.92 13.1094 10.92 12.296 10.92 11.576C9.53333 11.5227 8.26667 11.3494 7.12 11.056C5.97333 10.7627 5.06667 10.296 4.4 9.65604C3.73333 8.98937 3.4 8.05604 3.4 6.85604C3.4 5.73604 3.69333 4.85604 4.28 4.21604C4.89333 3.54937 5.72 3.06937 6.76 2.77604C7.8 2.4827 8.97333 2.29604 10.28 2.21604C11.5867 2.13604 12.9333 2.09604 14.32 2.09604C15.7333 2.09604 17.08 2.13604 18.36 2.21604C19.6667 2.29604 20.8267 2.4827 21.84 2.77604C22.88 3.06937 23.6933 3.54937 24.28 4.21604C24.8933 4.85604 25.2 5.73604 25.2 6.85604C25.2 8.29604 24.72 9.34937 23.76 10.016C22.8 10.6827 21.5733 11.136 20.08 11.376C20.1333 12.0694 20.16 12.8427 20.16 13.696C20.1867 14.5494 20.2 15.4827 20.2 16.496C20.2 20.976 19.3067 24.3627 17.52 26.656C15.76 28.9494 13.0133 30.096 9.28 30.096ZM32.4831 30.096C30.6165 30.096 28.9898 29.7227 27.6031 28.976C26.2165 28.2294 25.1365 27.256 24.3631 26.056C23.5898 24.8294 23.2031 23.5227 23.2031 22.136C23.2031 20.7227 23.5898 19.6694 24.3631 18.976C25.1365 18.2827 25.9765 17.936 26.8831 17.936C27.8165 17.936 28.5098 18.1227 28.9631 18.496C29.4165 18.8427 29.7498 19.256 29.9631 19.736C30.2031 20.1894 30.4565 20.6027 30.7231 20.976C31.0165 21.3227 31.4565 21.496 32.0431 21.496C33.1098 21.496 33.7231 20.856 33.8831 19.576C34.0698 18.296 34.1498 16.4427 34.1231 14.016C34.1231 13.1094 34.1231 12.296 34.1231 11.576C32.7365 11.5227 31.4698 11.3494 30.3231 11.056C29.1765 10.7627 28.2698 10.296 27.6031 9.65604C26.9365 8.98937 26.6031 8.05604 26.6031 6.85604C26.6031 5.73604 26.8965 4.85604 27.4831 4.21604C28.0965 3.54937 28.9231 3.06937 29.9631 2.77604C31.0031 2.4827 32.1765 2.29604 33.4831 2.21604C34.7898 2.13604 36.1365 2.09604 37.5231 2.09604C38.9365 2.09604 40.2831 2.13604 41.5631 2.21604C42.8698 2.29604 44.0298 2.4827 45.0431 2.77604C46.0831 3.06937 46.8965 3.54937 47.4831 4.21604C48.0965 4.85604 48.4031 5.73604 48.4031 6.85604C48.4031 8.29604 47.9231 9.34937 46.9631 10.016C46.0031 10.6827 44.7765 11.136 43.2831 11.376C43.3365 12.0694 43.3631 12.8427 43.3631 13.696C43.3898 14.5494 43.4031 15.4827 43.4031 16.496C43.4031 20.976 42.5098 24.3627 40.7231 26.656C38.9631 28.9494 36.2165 30.096 32.4831 30.096ZM55.5859 30.136C53.6126 30.1627 51.8793 29.7627 50.3859 28.936C48.9193 28.0827 47.7593 26.936 46.9059 25.496C46.0793 24.0294 45.6393 22.416 45.5859 20.656C45.5593 18.8427 45.9726 17.2427 46.8259 15.856C47.6793 14.4427 48.8659 13.3227 50.3859 12.496C51.9059 11.6694 53.6393 11.256 55.5859 11.256C57.5059 11.2294 59.1993 11.6294 60.6659 12.456C62.1593 13.2827 63.3459 14.4027 64.2259 15.816C65.1059 17.2294 65.5726 18.8427 65.6259 20.656C65.6526 22.3894 65.2393 23.976 64.3859 25.416C63.5326 26.8294 62.3459 27.9627 60.8259 28.816C59.3059 29.6427 57.5593 30.0827 55.5859 30.136ZM55.7059 24.296C56.4259 24.296 57.0526 24.016 57.5859 23.456C58.1193 22.896 58.3859 22.2427 58.3859 21.496C58.3859 20.7494 58.1193 20.1094 57.5859 19.576C57.0526 19.016 56.4259 18.736 55.7059 18.736C54.9859 18.736 54.3593 19.016 53.8259 19.576C53.2926 20.1094 53.0259 20.7494 53.0259 21.496C53.0259 22.2427 53.2926 22.896 53.8259 23.456C54.3593 24.016 54.9859 24.296 55.7059 24.296ZM70.6956 10.696C69.389 10.696 68.2823 10.2294 67.3756 9.29604C66.469 8.33604 66.0156 7.17604 66.0156 5.81604C66.0156 4.90937 66.2156 4.09604 66.6156 3.37604C67.0423 2.65604 67.6023 2.0827 68.2956 1.65604C69.0156 1.2027 69.8156 0.976037 70.6956 0.976037C71.549 0.976037 72.3223 1.2027 73.0156 1.65604C73.7356 2.0827 74.309 2.65604 74.7356 3.37604C75.1623 4.09604 75.3756 4.90937 75.3756 5.81604C75.3756 6.7227 75.1623 7.54937 74.7356 8.29604C74.309 9.01604 73.7356 9.6027 73.0156 10.056C72.3223 10.4827 71.549 10.696 70.6956 10.696ZM70.6956 30.096C69.629 30.096 68.829 29.7894 68.2956 29.176C67.789 28.5627 67.4423 27.6294 67.2556 26.376C67.0956 25.096 67.0023 23.456 66.9756 21.456C66.9756 19.456 67.0556 17.816 67.2156 16.536C67.4023 15.256 67.7623 14.3227 68.2956 13.736C68.829 13.1227 69.629 12.816 70.6956 12.816C71.7623 12.816 72.549 13.1227 73.0556 13.736C73.589 14.3227 73.949 15.256 74.1356 16.536C74.3223 17.816 74.4156 19.456 74.4156 21.456C74.4423 23.456 74.3623 25.096 74.1756 26.376C73.989 27.6294 73.629 28.5627 73.0956 29.176C72.5623 29.7894 71.7623 30.096 70.6956 30.096ZM92.7922 30.096C91.7255 30.096 90.9655 29.8027 90.5122 29.216C90.0855 28.6027 89.8322 27.8427 89.7522 26.936C89.6722 26.0027 89.6322 25.0694 89.6322 24.136C89.6322 22.7227 89.4322 21.5894 89.0322 20.736C88.6322 19.856 87.9255 19.416 86.9122 19.416C86.0055 19.416 85.3389 19.856 84.9122 20.736C84.4855 21.5894 84.2722 22.7227 84.2722 24.136C84.2722 25.0694 84.2322 25.9894 84.1522 26.896C84.0989 27.8027 83.8589 28.5627 83.4322 29.176C83.0055 29.7627 82.2322 30.056 81.1122 30.056C80.2855 30.056 79.5922 29.7494 79.0322 29.136C78.4989 28.5227 78.0855 27.7227 77.7922 26.736C77.4989 25.7494 77.2855 24.6827 77.1522 23.536C77.0455 22.3894 76.9922 21.2827 76.9922 20.216C76.9922 19.1494 77.0455 18.056 77.1522 16.936C77.2589 15.816 77.4455 14.776 77.7122 13.816C78.0055 12.856 78.4189 12.0827 78.9522 11.496C79.4855 10.9094 80.1789 10.616 81.0322 10.616C82.5522 10.616 83.4989 11.3094 83.8722 12.696C84.1922 12.3494 84.6989 12.0294 85.3922 11.736C86.1122 11.416 86.9255 11.256 87.8322 11.256C89.8855 11.256 91.5655 11.776 92.8722 12.816C94.1789 13.856 95.1255 15.296 95.7122 17.136C96.3255 18.9494 96.6189 21.056 96.5922 23.456C96.5922 24.6827 96.4722 25.8027 96.2322 26.816C96.0189 27.8027 95.6322 28.6027 95.0722 29.216C94.5389 29.8027 93.7789 30.096 92.7922 30.096ZM106.533 36.936C105.039 36.936 103.786 36.6427 102.773 36.056C101.759 35.496 101.253 34.7227 101.253 33.736C101.253 32.7227 101.693 31.936 102.573 31.376C103.453 30.816 104.519 30.6427 105.773 30.856C107.239 31.0694 108.546 30.976 109.693 30.576C110.866 30.2027 111.559 29.6294 111.773 28.856C111.346 29.096 110.759 29.296 110.013 29.456C109.266 29.616 108.426 29.696 107.493 29.696C105.679 29.696 104.146 29.4294 102.893 28.896C101.666 28.336 100.679 27.6294 99.9325 26.776C99.1858 25.896 98.6392 24.976 98.2925 24.016C97.9725 23.0294 97.8125 22.1227 97.8125 21.296C97.8125 19.1094 98.2792 17.2694 99.2125 15.776C100.173 14.2827 101.386 13.1494 102.853 12.376C104.319 11.6027 105.826 11.216 107.372 11.216C107.879 11.216 108.479 11.256 109.173 11.336C109.893 11.3894 110.506 11.4827 111.013 11.616C111.226 10.9494 111.573 10.4027 112.053 9.97604C112.559 9.54937 113.359 9.33604 114.453 9.33604C115.413 9.33604 116.213 9.66937 116.853 10.336C117.493 10.976 117.999 11.856 118.373 12.976C118.746 14.0694 119.013 15.296 119.173 16.656C119.333 17.9894 119.399 19.376 119.373 20.816C119.373 22.2294 119.306 23.5627 119.173 24.816C118.906 27.296 118.226 29.4427 117.133 31.256C116.039 33.0694 114.586 34.4694 112.773 35.456C110.986 36.4427 108.906 36.936 106.533 36.936ZM108.013 23.696C108.839 23.696 109.559 23.3894 110.173 22.776C110.786 22.1627 111.093 21.456 111.093 20.656C111.093 19.8294 110.786 19.1094 110.173 18.496C109.559 17.8827 108.839 17.576 108.013 17.576C107.186 17.576 106.466 17.8827 105.853 18.496C105.266 19.1094 104.973 19.8294 104.973 20.656C104.973 21.456 105.266 22.1627 105.853 22.776C106.466 23.3894 107.186 23.696 108.013 23.696Z" fill="#264466"/>
</svg>
