<svg width="73" height="22" viewBox="0 0 73 22" fill="none" xmlns="http://www.w3.org/2000/svg">
<path d="M6.168 17.5C5.048 17.5 4.072 17.276 3.24 16.828C2.408 16.38 1.76 15.796 1.296 15.076C0.832 14.34 0.6 13.556 0.6 12.724C0.6 11.876 0.832 11.244 1.296 10.828C1.76 10.412 2.264 10.204 2.808 10.204C3.368 10.204 3.784 10.316 4.056 10.54C4.328 10.748 4.528 10.996 4.656 11.284C4.8 11.556 4.952 11.804 5.112 12.028C5.288 12.236 5.552 12.34 5.904 12.34C6.544 12.34 6.912 11.956 7.008 11.188C7.12 10.42 7.168 9.308 7.152 7.852C7.152 7.308 7.152 6.82 7.152 6.388C6.32 6.356 5.56 6.252 4.872 6.076C4.184 5.9 3.64 5.62 3.24 5.236C2.84 4.836 2.64 4.276 2.64 3.556C2.64 2.884 2.816 2.356 3.168 1.972C3.536 1.572 4.032 1.284 4.656 1.108C5.28 0.932 5.984 0.82 6.768 0.771999C7.552 0.723999 8.36 0.699999 9.192 0.699999C10.04 0.699999 10.848 0.723999 11.616 0.771999C12.4 0.82 13.096 0.932 13.704 1.108C14.328 1.284 14.816 1.572 15.168 1.972C15.536 2.356 15.72 2.884 15.72 3.556C15.72 4.42 15.432 5.052 14.856 5.452C14.28 5.852 13.544 6.124 12.648 6.268C12.68 6.684 12.696 7.148 12.696 7.66C12.712 8.172 12.72 8.732 12.72 9.34C12.72 12.028 12.184 14.06 11.112 15.436C10.056 16.812 8.408 17.5 6.168 17.5ZM20.0899 17.5C18.9699 17.5 17.9939 17.276 17.1619 16.828C16.3299 16.38 15.6819 15.796 15.2179 15.076C14.7539 14.34 14.5219 13.556 14.5219 12.724C14.5219 11.876 14.7539 11.244 15.2179 10.828C15.6819 10.412 16.1859 10.204 16.7299 10.204C17.2899 10.204 17.7059 10.316 17.9779 10.54C18.2499 10.748 18.4499 10.996 18.5779 11.284C18.7219 11.556 18.8739 11.804 19.0339 12.028C19.2099 12.236 19.4739 12.34 19.8259 12.34C20.4659 12.34 20.8339 11.956 20.9299 11.188C21.0419 10.42 21.0899 9.308 21.0739 7.852C21.0739 7.308 21.0739 6.82 21.0739 6.388C20.2419 6.356 19.4819 6.252 18.7939 6.076C18.1059 5.9 17.5619 5.62 17.1619 5.236C16.7619 4.836 16.5619 4.276 16.5619 3.556C16.5619 2.884 16.7379 2.356 17.0899 1.972C17.4579 1.572 17.9539 1.284 18.5779 1.108C19.2019 0.932 19.9059 0.82 20.6899 0.771999C21.4739 0.723999 22.2819 0.699999 23.1139 0.699999C23.9619 0.699999 24.7699 0.723999 25.5379 0.771999C26.3219 0.82 27.0179 0.932 27.6259 1.108C28.2499 1.284 28.7379 1.572 29.0899 1.972C29.4579 2.356 29.6419 2.884 29.6419 3.556C29.6419 4.42 29.3539 5.052 28.7779 5.452C28.2019 5.852 27.4659 6.124 26.5699 6.268C26.6019 6.684 26.6179 7.148 26.6179 7.66C26.6339 8.172 26.6419 8.732 26.6419 9.34C26.6419 12.028 26.1059 14.06 25.0339 15.436C23.9779 16.812 22.3299 17.5 20.0899 17.5ZM33.9516 17.524C32.7676 17.54 31.7276 17.3 30.8316 16.804C29.9516 16.292 29.2556 15.604 28.7436 14.74C28.2476 13.86 27.9836 12.892 27.9516 11.836C27.9356 10.748 28.1836 9.788 28.6956 8.956C29.2076 8.108 29.9196 7.436 30.8316 6.94C31.7436 6.444 32.7836 6.196 33.9516 6.196C35.1036 6.18 36.1196 6.42 36.9996 6.916C37.8956 7.412 38.6076 8.084 39.1356 8.932C39.6636 9.78 39.9436 10.748 39.9756 11.836C39.9916 12.876 39.7436 13.828 39.2316 14.692C38.7196 15.54 38.0076 16.22 37.0956 16.732C36.1836 17.228 35.1356 17.492 33.9516 17.524ZM34.0236 14.02C34.4556 14.02 34.8316 13.852 35.1516 13.516C35.4716 13.18 35.6316 12.788 35.6316 12.34C35.6316 11.892 35.4716 11.508 35.1516 11.188C34.8316 10.852 34.4556 10.684 34.0236 10.684C33.5916 10.684 33.2156 10.852 32.8956 11.188C32.5756 11.508 32.4156 11.892 32.4156 12.34C32.4156 12.788 32.5756 13.18 32.8956 13.516C33.2156 13.852 33.5916 14.02 34.0236 14.02ZM43.0174 5.86C42.2334 5.86 41.5694 5.58 41.0254 5.02C40.4814 4.444 40.2094 3.748 40.2094 2.932C40.2094 2.388 40.3294 1.9 40.5694 1.468C40.8254 1.036 41.1614 0.691999 41.5774 0.435999C42.0094 0.163999 42.4894 0.0279989 43.0174 0.0279989C43.5294 0.0279989 43.9934 0.163999 44.4094 0.435999C44.8414 0.691999 45.1854 1.036 45.4414 1.468C45.6974 1.9 45.8254 2.388 45.8254 2.932C45.8254 3.476 45.6974 3.972 45.4414 4.42C45.1854 4.852 44.8414 5.204 44.4094 5.476C43.9934 5.732 43.5294 5.86 43.0174 5.86ZM43.0174 17.5C42.3774 17.5 41.8974 17.316 41.5774 16.948C41.2734 16.58 41.0654 16.02 40.9534 15.268C40.8574 14.5 40.8014 13.516 40.7854 12.316C40.7854 11.116 40.8334 10.132 40.9294 9.364C41.0414 8.596 41.2574 8.036 41.5774 7.684C41.8974 7.316 42.3774 7.132 43.0174 7.132C43.6574 7.132 44.1294 7.316 44.4334 7.684C44.7534 8.036 44.9694 8.596 45.0814 9.364C45.1934 10.132 45.2494 11.116 45.2494 12.316C45.2654 13.516 45.2174 14.5 45.1054 15.268C44.9934 16.02 44.7774 16.58 44.4574 16.948C44.1374 17.316 43.6574 17.5 43.0174 17.5ZM56.2753 17.5C55.6353 17.5 55.1793 17.324 54.9073 16.972C54.6513 16.604 54.4993 16.148 54.4513 15.604C54.4033 15.044 54.3793 14.484 54.3793 13.924C54.3793 13.076 54.2593 12.396 54.0193 11.884C53.7793 11.356 53.3553 11.092 52.7473 11.092C52.2033 11.092 51.8033 11.356 51.5473 11.884C51.2913 12.396 51.1633 13.076 51.1633 13.924C51.1633 14.484 51.1393 15.036 51.0913 15.58C51.0593 16.124 50.9153 16.58 50.6593 16.948C50.4033 17.3 49.9393 17.476 49.2673 17.476C48.7713 17.476 48.3553 17.292 48.0193 16.924C47.6993 16.556 47.4513 16.076 47.2753 15.484C47.0993 14.892 46.9713 14.252 46.8913 13.564C46.8273 12.876 46.7953 12.212 46.7953 11.572C46.7953 10.932 46.8273 10.276 46.8913 9.604C46.9553 8.932 47.0673 8.308 47.2273 7.732C47.4033 7.156 47.6513 6.692 47.9713 6.34C48.2913 5.988 48.7073 5.812 49.2193 5.812C50.1313 5.812 50.6993 6.228 50.9233 7.06C51.1153 6.852 51.4193 6.66 51.8353 6.484C52.2673 6.292 52.7553 6.196 53.2993 6.196C54.5313 6.196 55.5393 6.508 56.3233 7.132C57.1073 7.756 57.6753 8.62 58.0273 9.724C58.3953 10.812 58.5713 12.076 58.5553 13.516C58.5553 14.252 58.4833 14.924 58.3393 15.532C58.2113 16.124 57.9793 16.604 57.6433 16.972C57.3233 17.324 56.8673 17.5 56.2753 17.5ZM64.5195 21.604C63.6235 21.604 62.8715 21.428 62.2635 21.076C61.6555 20.74 61.3515 20.276 61.3515 19.684C61.3515 19.076 61.6155 18.604 62.1435 18.268C62.6715 17.932 63.3115 17.828 64.0635 17.956C64.9435 18.084 65.7275 18.028 66.4155 17.788C67.1195 17.564 67.5355 17.22 67.6635 16.756C67.4075 16.9 67.0555 17.02 66.6075 17.116C66.1595 17.212 65.6555 17.26 65.0955 17.26C64.0075 17.26 63.0875 17.1 62.3355 16.78C61.5995 16.444 61.0075 16.02 60.5595 15.508C60.1115 14.98 59.7835 14.428 59.5755 13.852C59.3835 13.26 59.2875 12.716 59.2875 12.22C59.2875 10.908 59.5675 9.804 60.1275 8.908C60.7035 8.012 61.4315 7.332 62.3115 6.868C63.1915 6.404 64.0955 6.172 65.0235 6.172C65.3275 6.172 65.6875 6.196 66.1035 6.244C66.5355 6.276 66.9035 6.332 67.2075 6.412C67.3355 6.012 67.5435 5.684 67.8315 5.428C68.1355 5.172 68.6155 5.044 69.2715 5.044C69.8475 5.044 70.3275 5.244 70.7115 5.644C71.0955 6.028 71.3995 6.556 71.6235 7.228C71.8475 7.884 72.0075 8.62 72.1035 9.436C72.1995 10.236 72.2395 11.068 72.2235 11.932C72.2235 12.78 72.1835 13.58 72.1035 14.332C71.9435 15.82 71.5355 17.108 70.8795 18.196C70.2235 19.284 69.3515 20.124 68.2635 20.716C67.1915 21.308 65.9435 21.604 64.5195 21.604ZM65.4075 13.66C65.9035 13.66 66.3355 13.476 66.7035 13.108C67.0715 12.74 67.2555 12.316 67.2555 11.836C67.2555 11.34 67.0715 10.908 66.7035 10.54C66.3355 10.172 65.9035 9.988 65.4075 9.988C64.9115 9.988 64.4795 10.172 64.1115 10.54C63.7595 10.908 63.5835 11.34 63.5835 11.836C63.5835 12.316 63.7595 12.74 64.1115 13.108C64.4795 13.476 64.9115 13.66 65.4075 13.66Z" fill="#38B57D"/>
</svg>
