<svg width="6" height="25" viewBox="0 0 6 25" fill="none" xmlns="http://www.w3.org/2000/svg">
<path fill-rule="evenodd" clip-rule="evenodd" d="M5.83268 22.125C5.83268 20.6062 4.56415 19.375 2.99935 19.375C1.43454 19.375 0.166016 20.6062 0.166016 22.125C0.166016 23.6438 1.43454 24.875 2.99935 24.875C4.56415 24.875 5.83268 23.6438 5.83268 22.125Z" fill="#6C757D"/>
<path fill-rule="evenodd" clip-rule="evenodd" d="M5.83268 12.4999C5.83268 10.9811 4.56415 9.74991 2.99935 9.74991C1.43454 9.74991 0.166016 10.9811 0.166016 12.4999C0.166016 14.0187 1.43454 15.2499 2.99935 15.2499C4.56415 15.2499 5.83268 14.0187 5.83268 12.4999Z" fill="#6C757D"/>
<path fill-rule="evenodd" clip-rule="evenodd" d="M5.83268 2.87485C5.83268 1.35607 4.56415 0.124848 2.99935 0.124848C1.43454 0.124848 0.166016 1.35607 0.166016 2.87485C0.166016 4.39363 1.43454 5.62485 2.99935 5.62485C4.56415 5.62485 5.83268 4.39363 5.83268 2.87485Z" fill="#6C757D"/>
</svg>
