<svg xmlns="http://www.w3.org/2000/svg" width="17" height="17" viewBox="0 0 17 17" fill="none">
<path d="M7.15755 2.5C8.30682 2.5 9.40902 2.95655 10.2217 3.7692C11.0343 4.58186 11.4909 5.68406 11.4909 6.83333C11.4909 7.90667 11.0976 8.89333 10.4509 9.65333L10.6309 9.83333H11.1576L14.4909 13.1667L13.4909 14.1667L10.1576 10.8333V10.3067L9.97755 10.1267C9.21755 10.7733 8.23089 11.1667 7.15755 11.1667C6.00828 11.1667 4.90608 10.7101 4.09342 9.89746C3.28076 9.08481 2.82422 7.9826 2.82422 6.83333C2.82422 5.68406 3.28076 4.58186 4.09342 3.7692C4.90608 2.95655 6.00828 2.5 7.15755 2.5ZM7.15755 3.83333C5.49089 3.83333 4.15755 5.16667 4.15755 6.83333C4.15755 8.5 5.49089 9.83333 7.15755 9.83333C8.82422 9.83333 10.1576 8.5 10.1576 6.83333C10.1576 5.16667 8.82422 3.83333 7.15755 3.83333Z" fill="#6C757D"/>
</svg>